<svg width="17" height="18" viewBox="0 0 17 18" fill="none" xmlns="http://www.w3.org/2000/svg">
<g clip-path="url(#clip0_45_252)">
<path d="M15.3351 14.7638C15.2885 14.8445 15.2214 14.9116 15.1406 14.9583C15.0599 15.0049 14.9682 15.0294 14.8749 15.0294H2.12494C2.03174 15.0293 1.94019 15.0047 1.85951 14.958C1.77883 14.9114 1.71184 14.8443 1.66528 14.7635C1.61871 14.6828 1.59421 14.5912 1.59424 14.498C1.59426 14.4048 1.61881 14.3132 1.66541 14.2325C2.67678 12.484 4.23533 11.2303 6.0542 10.636C5.15451 10.1004 4.4555 9.28424 4.06453 8.31293C3.67356 7.34162 3.61223 6.26882 3.88998 5.25928C4.16773 4.24974 4.76919 3.35929 5.60199 2.72466C6.4348 2.09004 7.4529 1.74634 8.49994 1.74634C9.54699 1.74634 10.5651 2.09004 11.3979 2.72466C12.2307 3.35929 12.8322 4.24974 13.1099 5.25928C13.3877 6.26882 13.3263 7.34162 12.9354 8.31293C12.5444 9.28424 11.8454 10.1004 10.9457 10.636C12.7646 11.2303 14.3231 12.484 15.3345 14.2325C15.3812 14.3132 15.4059 14.4048 15.406 14.4981C15.4061 14.5913 15.3817 14.683 15.3351 14.7638Z" fill="#252525"/>
</g>
<defs>
<clipPath id="clip0_45_252">
<rect width="17" height="17" fill="white" transform="translate(0 0.154297)"/>
</clipPath>
</defs>
</svg>
