<svg width="18" height="18" viewBox="0 0 18 18" fill="none" xmlns="http://www.w3.org/2000/svg">
<g clip-path="url(#clip0_45_257)">
<path d="M14.1458 2.2793H12.552V1.74805C12.552 1.60715 12.496 1.47203 12.3964 1.3724C12.2968 1.27277 12.1616 1.2168 12.0208 1.2168C11.8799 1.2168 11.7447 1.27277 11.6451 1.3724C11.5455 1.47203 11.4895 1.60715 11.4895 1.74805V2.2793H6.177V1.74805C6.177 1.60715 6.12103 1.47203 6.0214 1.3724C5.92177 1.27277 5.78665 1.2168 5.64575 1.2168C5.50486 1.2168 5.36973 1.27277 5.2701 1.3724C5.17047 1.47203 5.1145 1.60715 5.1145 1.74805V2.2793H3.52075C3.23896 2.2793 2.96871 2.39124 2.76945 2.5905C2.57019 2.78975 2.45825 3.06 2.45825 3.3418V13.9668C2.45825 14.2486 2.57019 14.5188 2.76945 14.7181C2.96871 14.9174 3.23896 15.0293 3.52075 15.0293H14.1458C14.4275 15.0293 14.6978 14.9174 14.8971 14.7181C15.0963 14.5188 15.2083 14.2486 15.2083 13.9668V3.3418C15.2083 3.06 15.0963 2.78975 14.8971 2.5905C14.6978 2.39124 14.4275 2.2793 14.1458 2.2793ZM14.1458 5.4668H3.52075V3.3418H5.1145V3.87305C5.1145 4.01394 5.17047 4.14907 5.2701 4.2487C5.36973 4.34833 5.50486 4.4043 5.64575 4.4043C5.78665 4.4043 5.92177 4.34833 6.0214 4.2487C6.12103 4.14907 6.177 4.01394 6.177 3.87305V3.3418H11.4895V3.87305C11.4895 4.01394 11.5455 4.14907 11.6451 4.2487C11.7447 4.34833 11.8799 4.4043 12.0208 4.4043C12.1616 4.4043 12.2968 4.34833 12.3964 4.2487C12.496 4.14907 12.552 4.01394 12.552 3.87305V3.3418H14.1458V5.4668Z" fill="#252525"/>
</g>
<defs>
<clipPath id="clip0_45_257">
<rect width="17" height="17" fill="white" transform="translate(0.333252 0.154297)"/>
</clipPath>
</defs>
</svg>
