<svg width="58" height="59" viewBox="0 0 58 59" fill="none" xmlns="http://www.w3.org/2000/svg">
<path d="M0 27.7043H12.7222C15.625 27.7043 18.6326 27.5273 21.1036 26.0047C23.035 24.8149 24.6606 23.189 25.8508 21.2575C27.373 18.7869 27.55 15.7793 27.55 12.8765V0.154297H8.7C6.3926 0.154297 4.18008 1.07081 2.54812 2.70242C0.91687 4.33402 0 6.5469 0 8.8543V27.7043Z" fill="white"/>
<path d="M58 29.1543C58 45.1709 45.0166 58.1543 29 58.1543C13.4706 58.1543 0.792969 45.9468 0.0346924 30.6043H12.7222C15.625 30.6043 18.6326 30.7813 21.1029 32.3039C22.8736 33.3938 24.3895 34.852 25.547 36.5792C26.7046 38.3064 27.4771 40.2622 27.8127 42.3144L27.9026 42.8698C27.9805 43.0989 28.1284 43.2975 28.3253 43.4384C28.4449 43.5237 28.5787 43.5849 28.7189 43.62C28.8103 43.643 28.9044 43.6547 29 43.6547C29.2421 43.6547 29.4779 43.5789 29.6747 43.4384C29.8716 43.2975 30.0195 43.0989 30.0974 42.8698L30.1873 42.3144C30.6773 39.316 32.0961 36.5473 34.2449 34.3992C36.393 32.2508 39.162 30.8316 42.1597 30.342L42.7155 30.2521C42.9442 30.1738 43.1432 30.0259 43.2841 29.829C43.425 29.6322 43.5 29.3961 43.5 29.1543C43.5 28.9125 43.425 28.6764 43.2841 28.4796C43.2019 28.3645 43.1 28.2661 42.9832 28.1886C42.9003 28.1337 42.8104 28.0891 42.7155 28.0565L42.1597 27.9666C40.1079 27.6317 38.1517 26.8593 36.4249 25.7017C34.6973 24.5441 33.2396 23.0283 32.1492 21.2575C30.627 18.7869 30.45 15.7793 30.45 12.8765V0.154297H49.3C51.6074 0.154297 53.8199 1.07081 55.4519 2.70242C57.0831 4.33402 58 6.5469 58 8.8543V29.1543Z" fill="white"/>
</svg>
