<svg width="25" height="25" viewBox="0 0 25 25" fill="none" xmlns="http://www.w3.org/2000/svg">
<path d="M8.0054 12.2157C8.0054 10.0047 9.7968 8.21188 12.0072 8.21188C14.2176 8.21188 16.0099 10.0047 16.0099 12.2157C16.0099 14.4268 14.2176 16.2196 12.0072 16.2196C9.7968 16.2196 8.0054 14.4268 8.0054 12.2157ZM5.8416 12.2157C5.8416 15.622 8.602 18.3831 12.0072 18.3831C15.4124 18.3831 18.1728 15.622 18.1728 12.2157C18.1728 8.80948 15.4124 6.04838 12.0072 6.04838C8.602 6.04838 5.8416 8.80948 5.8416 12.2157ZM16.976 5.80388C16.9759 6.08888 17.0603 6.36758 17.2185 6.60468C17.3767 6.84178 17.6017 7.02658 17.8649 7.13578C18.1281 7.24498 18.4178 7.27368 18.6974 7.21818C18.9769 7.16268 19.2337 7.02548 19.4353 6.82398C19.6369 6.62248 19.7742 6.36578 19.8299 6.08618C19.8856 5.80658 19.8572 5.51678 19.7482 5.25338C19.6393 4.98998 19.4547 4.76488 19.2178 4.60638C18.9809 4.44788 18.7024 4.36328 18.4174 4.36318C18.0355 4.36338 17.6686 4.51518 17.3984 4.78528C17.1282 5.05538 16.9763 5.42178 16.976 5.80388ZM7.1563 21.9921C5.9856 21.9388 5.3494 21.7438 4.9265 21.579C4.3659 21.3607 3.9659 21.1007 3.5454 20.6806C3.1248 20.2605 2.8645 19.8608 2.6473 19.3C2.4824 18.8772 2.2874 18.2406 2.2342 17.0696C2.176 15.8036 2.1644 15.4233 2.1644 12.2158C2.1644 9.00838 2.177 8.62918 2.2342 7.36208C2.2875 6.19108 2.484 5.55568 2.6473 5.13168C2.8655 4.57088 3.1254 4.17078 3.5454 3.75008C3.9654 3.32948 4.365 3.06908 4.9265 2.85178C5.3492 2.68688 5.9856 2.49178 7.1563 2.43858C8.4219 2.38038 8.8021 2.36868 12.0072 2.36868C15.2123 2.36868 15.5928 2.38128 16.8596 2.43858C18.0302 2.49188 18.6654 2.68838 19.0893 2.85178C19.6499 3.06908 20.0499 3.33008 20.4705 3.75008C20.891 4.17018 21.1503 4.57088 21.3686 5.13168C21.5334 5.55438 21.7284 6.19108 21.7816 7.36208C21.8399 8.62918 21.8515 9.00838 21.8515 12.2158C21.8515 15.4233 21.8399 15.8025 21.7816 17.0696C21.7283 18.2406 21.5324 18.8771 21.3686 19.3C21.1503 19.8608 20.8904 20.2609 20.4705 20.6806C20.0505 21.1003 19.6499 21.3607 19.0893 21.579C18.6667 21.7439 18.0302 21.9389 16.8596 21.9921C15.5939 22.0504 15.2137 22.062 12.0072 22.062C8.8007 22.062 8.4216 22.0504 7.1563 21.9921ZM7.0569 0.277778C5.7786 0.335978 4.9052 0.538778 4.1424 0.835678C3.3524 1.14228 2.6837 1.55358 2.0154 2.22098C1.3471 2.88848 0.9369 3.55848 0.6304 4.34868C0.3336 5.11218 0.1309 5.98538 0.0726995 7.26398C0.0134995 8.54458 0 8.95398 0 12.2157C0 15.4775 0.0134995 15.8869 0.0726995 17.1675C0.1309 18.4462 0.3336 19.3193 0.6304 20.0828C0.9369 20.8726 1.3472 21.5433 2.0154 22.2104C2.6836 22.8776 3.3524 23.2883 4.1424 23.5958C4.9066 23.8927 5.7786 24.0954 7.0569 24.1537C8.3378 24.2119 8.7464 24.2264 12.0072 24.2264C15.268 24.2264 15.6773 24.2129 16.9575 24.1537C18.2359 24.0954 19.1087 23.8927 19.872 23.5958C20.6615 23.2883 21.3307 22.8779 21.999 22.2104C22.6673 21.543 23.0766 20.8726 23.384 20.0828C23.6808 19.3193 23.8844 18.4461 23.9417 17.1675C23.9999 15.8859 24.0134 15.4775 24.0134 12.2157C24.0134 8.95398 23.9999 8.54458 23.9417 7.26398C23.8835 5.98528 23.6808 5.11168 23.384 4.34868C23.0766 3.55888 22.6662 2.88948 21.999 2.22098C21.3318 1.55258 20.6615 1.14228 19.873 0.835678C19.1087 0.538778 18.2358 0.335078 16.9585 0.277778C15.6782 0.219578 15.2689 0.205078 12.0082 0.205078C8.7474 0.205078 8.3378 0.218578 7.0569 0.277778Z" fill="white"/>
</svg>
