<svg width="26" height="21" viewBox="0 0 26 21" fill="none" xmlns="http://www.w3.org/2000/svg">
<path d="M24.9131 2.55509C24.1206 2.89649 23.2874 3.13419 22.4341 3.26239C22.833 3.19389 23.42 2.47519 23.6537 2.18429C24.0086 1.74549 24.2792 1.24459 24.4515 0.706993C24.4515 0.667093 24.4914 0.609994 24.4515 0.581494C24.4314 0.570494 24.4089 0.564793 24.386 0.564793C24.3631 0.564793 24.3405 0.570494 24.3204 0.581494C23.3939 1.08369 22.4078 1.46699 21.3855 1.72229C21.3499 1.73319 21.3119 1.73419 21.2758 1.72509C21.2396 1.71609 21.2066 1.69739 21.1803 1.67099C21.1008 1.57609 21.0151 1.48659 20.9239 1.40289C20.5069 1.02889 20.0338 0.722894 19.5219 0.495894C18.831 0.212194 18.0846 0.0892931 17.3392 0.136593C16.616 0.182293 15.9099 0.376493 15.2648 0.706993C14.6296 1.05549 14.0713 1.52889 13.6235 2.09879C13.1525 2.68529 12.8124 3.36609 12.6262 4.09519C12.4727 4.78869 12.4552 5.50549 12.5749 6.20559C12.5749 6.32539 12.5749 6.34249 12.4723 6.32539C8.40897 5.72649 5.07507 4.28339 2.35097 1.18609C2.23127 1.04919 2.16867 1.04919 2.07177 1.18609C0.886368 2.98859 1.46197 5.84059 2.94367 7.24949C3.14317 7.43769 3.34827 7.62019 3.56487 7.79139C2.88547 7.74309 2.22277 7.55879 1.61587 7.24949C1.50187 7.17529 1.43917 7.21529 1.43347 7.35219C1.41727 7.54189 1.41727 7.73279 1.43347 7.92259C1.55237 8.83209 1.91047 9.69369 2.47127 10.4193C3.03197 11.1449 3.77517 11.7084 4.62487 12.0523C4.83197 12.1411 5.04787 12.208 5.26887 12.2519C4.63997 12.3758 3.99487 12.3951 3.35967 12.3089C3.22297 12.2804 3.17167 12.3546 3.22297 12.4858C4.06067 14.7674 5.87867 15.4632 7.21217 15.8511C7.39457 15.8796 7.57697 15.8796 7.78207 15.9253C7.78207 15.9253 7.78207 15.9253 7.74787 15.9595C7.35467 16.6782 5.76467 17.163 5.03517 17.414C3.70377 17.8927 2.28417 18.0757 0.874967 17.9502C0.652667 17.916 0.601468 17.9217 0.544468 17.9502C0.487468 17.9787 0.544467 18.0415 0.607067 18.0985C0.892067 18.2867 1.17697 18.4522 1.47337 18.6119C2.35557 19.0935 3.28827 19.4761 4.25447 19.7527C9.25807 21.133 14.8887 20.1177 18.6443 16.3816C21.5964 13.4497 22.6336 9.40559 22.6336 5.35569C22.6336 5.20169 22.8216 5.11049 22.9299 5.03059C23.6768 4.44819 24.3352 3.76029 24.8846 2.98859C24.9798 2.87349 25.0286 2.72709 25.0214 2.57789C25.0214 2.49229 25.0214 2.50939 24.9131 2.55509Z" fill="white"/>
</svg>
