<svg width="28" height="20" viewBox="0 0 28 20" fill="none" xmlns="http://www.w3.org/2000/svg">
<path d="M27.3504 3.55234C27.037 2.37414 26.1099 1.44464 24.9304 1.12614C22.7976 0.554443 14.2405 0.554443 14.2405 0.554443C14.2405 0.554443 5.68785 0.554443 3.55075 1.12614C2.37565 1.44034 1.44855 2.36974 1.13075 3.55234C0.560547 5.69044 0.560547 10.1544 0.560547 10.1544C0.560547 10.1544 0.560547 14.6184 1.13075 16.7566C1.44415 17.9348 2.37125 18.8643 3.55075 19.1828C5.68785 19.7544 14.2405 19.7544 14.2405 19.7544C14.2405 19.7544 22.7976 19.7544 24.9304 19.1828C26.1055 18.8686 27.0326 17.9392 27.3504 16.7566C27.9205 14.6184 27.9205 10.1544 27.9205 10.1544C27.9205 10.1544 27.9205 5.69044 27.3504 3.55234Z" fill="white"/>
</svg>
